<svg width="32" height="32" viewBox="0 0 32 32" fill="none" xmlns="http://www.w3.org/2000/svg">
  <defs>
    <g id="carbon:function">
      <path d="M19.626 29.526L19.11 27.593C21.0533 27.0708 22.8342 26.0684 24.2889 24.678C25.7436 23.2876 26.8254 21.5538 27.4349 19.6361C28.0444 17.7183 28.162 15.6781 27.7769 13.703C27.3917 11.7279 26.5163 9.88132 25.231 8.333L26.769 7.053C28.2696 8.85934 29.2919 11.0141 29.7417 13.319C30.1915 15.6238 30.0545 18.0048 29.3431 20.2429C28.6317 22.4809 27.369 24.5041 25.6709 26.1263C23.9729 27.7485 21.8942 28.9176 19.626 29.526Z" fill="#888" fill-opacity="0.5" />
      <path d="M10 29H8V25.18L8.804 25.02C10.262 24.727 12 23.62 12 20V18.618L8 16.618V14.382L12 12.382V12C12 6.533 15.925 3 22 3H24V6.82L23.196 6.98C21.738 7.273 20 8.38 20 12V12.382L24 14.382V16.618L20 18.618V20C20 25.467 16.075 29 10 29ZM10 27C14.935 27 18 24.318 18 20V17.382L21.764 15.5L18 13.618V12C18 7.422 20.385 5.808 22 5.24V5C17.065 5 14 7.682 14 12V13.618L10.236 15.5L14 17.382V20C14 24.578 11.615 26.192 10 26.76V27Z" fill="url(#bluered)" />
      <path d="M5.231 24.947C3.73015 23.1404 2.70783 20.9853 2.25813 18.68C1.80843 16.3748 1.94579 13.9935 2.65758 11.7552C3.36937 9.51696 4.63272 7.4937 6.33135 5.87165C8.02998 4.2496 10.1093 3.08086 12.378 2.473L12.894 4.405C10.9498 4.9265 9.16797 5.92854 7.7124 7.31893C6.25684 8.70933 5.17429 10.4434 4.56434 12.3617C3.95439 14.28 3.83662 16.3209 4.22187 18.2966C4.60713 20.2723 5.48303 22.1194 6.769 23.668L5.231 24.947Z" fill="#888" fill-opacity="0.5" />
    </g>
    <mask id="cutout">
      <rect width="100%" height="100%" fill="white"/>
      <use href="#carbon:function" fill="black" stroke="black" stroke-width="3.2" />
      <rect x="40%" y="0" width="20%" height="100%" fill="black" />
    </mask>
    <linearGradient id="bluered" x1="0%" y1="100%" x2="100%" y2="0%">
      <stop offset="0%" style="stop-color: #18F; stop-opacity: 1" />
      <stop offset="100%" style="stop-color: #C66; stop-opacity: 1" />
    </linearGradient>
  </defs>
  <rect x="2.5" y="2.5" width="27" height="27" rx="3.6"
        stroke="#688D78" stroke-opacity="0.8" mask="url(#cutout)" />
  <use href="#carbon:function" />
</svg>
