<svg width="33" height="32" viewBox="0 0 33 32" fill="none" xmlns="http://www.w3.org/2000/svg">
  <defs>
    <mask id="cutoutMask">
      <rect width="100%" height="100%" fill="white"/>
      <path d="M31.1458 17.4538C31.6425 17.5685 31.9527 18.0641 31.8383 18.5608L31.7127 19.1051C31.6629 19.3203 31.4691 19.4713 31.2483 19.467C30.5603 19.4546 29.657 19.7998 29.2604 21.5177C29.2349 21.6289 29.2727 21.7454 29.359 21.8201L30.387 22.7069C30.6405 22.9257 30.7518 23.2672 30.6765 23.5935C30.6011 23.9198 30.3514 24.1779 30.0277 24.2636L29.1183 24.5036C28.7598 24.5985 28.4832 24.8844 28.3997 25.2458L28.3841 25.3133C27.7852 27.9077 25.6319 29.177 22.8992 28.5461C22.4026 28.4312 22.0931 27.9351 22.2078 27.4384L22.3332 26.8951C22.3829 26.6798 22.5767 26.5289 22.7976 26.5332C23.4856 26.5456 24.3888 26.2004 24.7854 24.4825L24.801 24.415C24.8845 24.0536 24.7612 23.6754 24.4805 23.4329L23.7685 22.8185C23.515 22.5996 23.4037 22.2582 23.4791 21.9319C23.5544 21.6056 23.8041 21.3474 24.1279 21.2618L25.4396 20.9152C25.5501 20.886 25.6359 20.7981 25.6617 20.6868C26.2607 18.0926 28.4132 16.8232 31.1458 17.4538ZM30.859 18.3879C28.673 17.9103 27.0292 18.8663 26.5609 20.8944L26.4904 21.1999C26.4248 21.484 26.2077 21.7086 25.9258 21.7831C25.3147 21.9448 25.1346 22.7249 25.613 23.1381C25.8337 23.3287 25.9303 23.6257 25.8648 23.9099L25.6846 24.6901C25.193 26.8197 23.9828 27.3598 23.1923 27.4762C23.1637 27.4804 23.1403 27.5018 23.1338 27.5299C23.1253 27.5669 23.1498 27.6042 23.1869 27.6123C25.3729 28.0898 27.0158 27.1336 27.484 25.1055L27.6641 24.3253C27.7298 24.0412 27.9478 23.8168 28.2297 23.7422C28.8408 23.5806 29.021 22.8004 28.5425 22.3873C28.3218 22.1967 28.2242 21.8994 28.2898 21.6153L28.3603 21.3099C28.8519 19.1803 30.0631 18.6403 30.8536 18.5239C30.8821 18.5197 30.9047 18.4982 30.9112 18.4701C30.9197 18.433 30.8962 18.396 30.859 18.3879Z"
            fill="black" stroke="black" stroke-width="1.2" /> 
    </mask>
    <linearGradient id="function" x1="0%" y1="100%" x2="100%" y2="0%">
      <stop offset="0%" style="stop-color: #18F; stop-opacity: 1" />
      <stop offset="100%" style="stop-color: #C66; stop-opacity: 1" />
    </linearGradient>
  </defs>
  <path d="M9.14514 7.13943V9.13714H4.85714C4.17516 9.13714 3.5211 9.40806 3.03887 9.8903C2.55663 10.3725 2.28571 11.0266 2.28571 11.7086V16H8.57828V14.5714C8.57828 14.3441 8.66859 14.1261 8.82934 13.9653C8.99008 13.8046 9.2081 13.7143 9.43543 13.7143C9.66276 13.7143 9.88077 13.8046 10.0415 13.9653C10.2023 14.1261 10.2926 14.3441 10.2926 14.5714V16H21.7211V14.5714C21.7211 14.3441 21.8114 14.1261 21.9722 13.9653C22.1329 13.8046 22.351 13.7143 22.5783 13.7143C22.8056 13.7143 23.0236 13.8046 23.1844 13.9653C23.3451 14.1261 23.4354 14.3441 23.4354 14.5714V16H29.7177V11.7086C29.7177 11.0266 29.4468 10.3725 28.9646 9.8903C28.4823 9.40806 27.8283 9.13714 27.1463 9.13714H22.8606V7.13943C22.8606 6.80174 22.7941 6.46736 22.6648 6.15538C22.5356 5.8434 22.3462 5.55993 22.1074 5.32115C21.8686 5.08237 21.5852 4.89296 21.2732 4.76374C20.9612 4.63451 20.6268 4.568 20.2891 4.568H11.7177C11.0357 4.568 10.3817 4.83892 9.89944 5.32115C9.4172 5.80339 9.14629 6.45744 9.14629 7.13943M11.7177 6.28228H20.2903C20.5176 6.28228 20.7356 6.37259 20.8964 6.53334C21.0571 6.69408 21.1474 6.9121 21.1474 7.13943V9.13714H10.8617V7.13943C10.8617 6.9121 10.952 6.69408 11.1128 6.53334C11.2735 6.37259 11.4904 6.28228 11.7177 6.28228ZM29.7177 17.7143H23.4354V19.1429C23.4354 19.3702 23.3451 19.5882 23.1844 19.7489C23.0236 19.9097 22.8056 20 22.5783 20C22.351 20 22.1329 19.9097 21.9722 19.7489C21.8114 19.5882 21.7211 19.3702 21.7211 19.1429V17.7143H10.2926V19.1429C10.2926 19.3702 10.2023 19.5882 10.0415 19.7489C9.88077 19.9097 9.66276 20 9.43543 20C9.2081 20 8.99008 19.9097 8.82934 19.7489C8.66859 19.5882 8.57828 19.3702 8.57828 19.1429V17.7143H2.28571V24.8514C2.28571 25.5334 2.55663 26.1875 3.03887 26.6697C3.5211 27.1519 4.17516 27.4229 4.85714 27.4229H27.1474C27.8294 27.4229 28.4835 27.1519 28.9657 26.6697C29.4479 26.1875 29.7189 25.5334 29.7189 24.8514L29.7177 17.7143Z"
        fill="#688D78" stroke="#688D78" stroke-width="0.5" mask="url(#cutoutMask)" fill-opacity="0.5" /> 
  <path d="M31.1458 17.4538C31.6425 17.5685 31.9527 18.0641 31.8383 18.5608L31.7127 19.1051C31.6629 19.3203 31.4691 19.4713 31.2483 19.467C30.5603 19.4546 29.657 19.7998 29.2604 21.5177C29.2349 21.6289 29.2727 21.7454 29.359 21.8201L30.387 22.7069C30.6405 22.9257 30.7518 23.2672 30.6765 23.5935C30.6011 23.9198 30.3514 24.1779 30.0277 24.2636L29.1183 24.5036C28.7598 24.5985 28.4832 24.8844 28.3997 25.2458L28.3841 25.3133C27.7852 27.9077 25.6319 29.177 22.8992 28.5461C22.4026 28.4312 22.0931 27.9351 22.2078 27.4384L22.3332 26.8951C22.3829 26.6798 22.5767 26.5289 22.7976 26.5332C23.4856 26.5456 24.3888 26.2004 24.7854 24.4825L24.801 24.415C24.8845 24.0536 24.7612 23.6754 24.4805 23.4329L23.7685 22.8185C23.515 22.5996 23.4037 22.2582 23.4791 21.9319C23.5544 21.6056 23.8041 21.3474 24.1279 21.2618L25.4396 20.9152C25.5501 20.886 25.6359 20.7981 25.6617 20.6868C26.2607 18.0926 28.4132 16.8232 31.1458 17.4538ZM30.859 18.3879C28.673 17.9103 27.0292 18.8663 26.5609 20.8944L26.4904 21.1999C26.4248 21.484 26.2077 21.7086 25.9258 21.7831C25.3147 21.9448 25.1346 22.7249 25.613 23.1381C25.8337 23.3287 25.9303 23.6257 25.8648 23.9099L25.6846 24.6901C25.193 26.8197 23.9828 27.3598 23.1923 27.4762C23.1637 27.4804 23.1403 27.5018 23.1338 27.5299C23.1253 27.5669 23.1498 27.6042 23.1869 27.6123C25.3729 28.0898 27.0158 27.1336 27.484 25.1055L27.6641 24.3253C27.7298 24.0412 27.9478 23.8168 28.2297 23.7422C28.8408 23.5806 29.021 22.8004 28.5425 22.3873C28.3218 22.1967 28.2242 21.8994 28.2898 21.6153L28.3603 21.3099C28.8519 19.1803 30.0631 18.6403 30.8536 18.5239C30.8821 18.5197 30.9047 18.4982 30.9112 18.4701C30.9197 18.433 30.8962 18.396 30.859 18.3879Z"
        fill="url(#function)" />
</svg>